<mxfile host="app.diagrams.net" agent="Mozilla/5.0 (Windows NT 10.0; Win64; x64; rv:130.0) Gecko/20100101 Firefox/130.0" version="24.7.16">
  <diagram id="R2lEEEUBdFMjLlhIrx00" name="Page-1">
    <mxGraphModel dx="1050" dy="605" grid="1" gridSize="10" guides="1" tooltips="1" connect="1" arrows="1" fold="1" page="1" pageScale="1" pageWidth="850" pageHeight="1100" math="0" shadow="0" extFonts="Permanent Marker^https://fonts.googleapis.com/css?family=Permanent+Marker">
      <root>
        <mxCell id="0" />
        <mxCell id="1" parent="0" />
        <mxCell id="s2Kjf74PjBErWB5rCB7U-1" value="&lt;div&gt;client&lt;/div&gt;" style="swimlane;fontStyle=0;childLayout=stackLayout;horizontal=1;startSize=30;horizontalStack=0;resizeParent=1;resizeParentMax=0;resizeLast=0;collapsible=1;marginBottom=0;whiteSpace=wrap;html=1;" parent="1" vertex="1">
          <mxGeometry x="510" y="220" width="140" height="150" as="geometry" />
        </mxCell>
        <mxCell id="s2Kjf74PjBErWB5rCB7U-2" value="&lt;div&gt;&lt;u&gt;idClient&lt;/u&gt;&lt;/div&gt;" style="text;strokeColor=none;fillColor=none;align=left;verticalAlign=middle;spacingLeft=4;spacingRight=4;overflow=hidden;points=[[0,0.5],[1,0.5]];portConstraint=eastwest;rotatable=0;whiteSpace=wrap;html=1;" parent="s2Kjf74PjBErWB5rCB7U-1" vertex="1">
          <mxGeometry y="30" width="140" height="30" as="geometry" />
        </mxCell>
        <mxCell id="s2Kjf74PjBErWB5rCB7U-3" value="&lt;div&gt;nom&lt;span style=&quot;white-space: pre;&quot;&gt;&#x9;&lt;/span&gt;&lt;/div&gt;" style="text;strokeColor=none;fillColor=none;align=left;verticalAlign=middle;spacingLeft=4;spacingRight=4;overflow=hidden;points=[[0,0.5],[1,0.5]];portConstraint=eastwest;rotatable=0;whiteSpace=wrap;html=1;" parent="s2Kjf74PjBErWB5rCB7U-1" vertex="1">
          <mxGeometry y="60" width="140" height="30" as="geometry" />
        </mxCell>
        <mxCell id="s2Kjf74PjBErWB5rCB7U-4" value="prénom" style="text;strokeColor=none;fillColor=none;align=left;verticalAlign=middle;spacingLeft=4;spacingRight=4;overflow=hidden;points=[[0,0.5],[1,0.5]];portConstraint=eastwest;rotatable=0;whiteSpace=wrap;html=1;" parent="s2Kjf74PjBErWB5rCB7U-1" vertex="1">
          <mxGeometry y="90" width="140" height="30" as="geometry" />
        </mxCell>
        <mxCell id="_rh66zNBPdWcCcWVSU1G-16" value="&lt;div&gt;dateNaissance&lt;/div&gt;" style="text;strokeColor=none;fillColor=none;spacingLeft=4;spacingRight=4;overflow=hidden;rotatable=0;points=[[0,0.5],[1,0.5]];portConstraint=eastwest;fontSize=12;whiteSpace=wrap;html=1;" vertex="1" parent="s2Kjf74PjBErWB5rCB7U-1">
          <mxGeometry y="120" width="140" height="30" as="geometry" />
        </mxCell>
        <mxCell id="TDjMeO70TRNZ5qjvtTgJ-1" value="&lt;div&gt;achat&lt;/div&gt;" style="swimlane;fontStyle=0;childLayout=stackLayout;horizontal=1;startSize=30;horizontalStack=0;resizeParent=1;resizeParentMax=0;resizeLast=0;collapsible=1;marginBottom=0;whiteSpace=wrap;html=1;" parent="1" vertex="1">
          <mxGeometry x="310" y="80" width="140" height="90" as="geometry" />
        </mxCell>
        <mxCell id="_rh66zNBPdWcCcWVSU1G-18" value="&lt;u&gt;n°achat&lt;/u&gt;" style="text;strokeColor=none;fillColor=none;spacingLeft=4;spacingRight=4;overflow=hidden;rotatable=0;points=[[0,0.5],[1,0.5]];portConstraint=eastwest;fontSize=12;whiteSpace=wrap;html=1;" vertex="1" parent="TDjMeO70TRNZ5qjvtTgJ-1">
          <mxGeometry y="30" width="140" height="30" as="geometry" />
        </mxCell>
        <mxCell id="TDjMeO70TRNZ5qjvtTgJ-3" value="&lt;div&gt;qtt&lt;/div&gt;" style="text;strokeColor=none;fillColor=none;align=left;verticalAlign=middle;spacingLeft=4;spacingRight=4;overflow=hidden;points=[[0,0.5],[1,0.5]];portConstraint=eastwest;rotatable=0;whiteSpace=wrap;html=1;" parent="TDjMeO70TRNZ5qjvtTgJ-1" vertex="1">
          <mxGeometry y="60" width="140" height="30" as="geometry" />
        </mxCell>
        <mxCell id="_rh66zNBPdWcCcWVSU1G-1" value="Article" style="swimlane;fontStyle=0;childLayout=stackLayout;horizontal=1;startSize=26;horizontalStack=0;resizeParent=1;resizeParentMax=0;resizeLast=0;collapsible=1;marginBottom=0;align=center;fontSize=14;" vertex="1" parent="1">
          <mxGeometry y="100" width="160" height="86" as="geometry" />
        </mxCell>
        <mxCell id="TDjMeO70TRNZ5qjvtTgJ-2" value="&lt;div&gt;&lt;u&gt;intituléArcicle&lt;/u&gt;&lt;/div&gt;" style="text;strokeColor=none;fillColor=none;align=left;verticalAlign=middle;spacingLeft=4;spacingRight=4;overflow=hidden;points=[[0,0.5],[1,0.5]];portConstraint=eastwest;rotatable=0;whiteSpace=wrap;html=1;" parent="_rh66zNBPdWcCcWVSU1G-1" vertex="1">
          <mxGeometry y="26" width="160" height="30" as="geometry" />
        </mxCell>
        <mxCell id="TDjMeO70TRNZ5qjvtTgJ-4" value="&lt;div&gt;dansFrigo&lt;/div&gt;" style="text;strokeColor=none;fillColor=none;align=left;verticalAlign=middle;spacingLeft=4;spacingRight=4;overflow=hidden;points=[[0,0.5],[1,0.5]];portConstraint=eastwest;rotatable=0;whiteSpace=wrap;html=1;" parent="_rh66zNBPdWcCcWVSU1G-1" vertex="1">
          <mxGeometry y="56" width="160" height="30" as="geometry" />
        </mxCell>
        <mxCell id="_rh66zNBPdWcCcWVSU1G-5" value="Localité" style="swimlane;fontStyle=0;childLayout=stackLayout;horizontal=1;startSize=26;horizontalStack=0;resizeParent=1;resizeParentMax=0;resizeLast=0;collapsible=1;marginBottom=0;align=center;fontSize=14;" vertex="1" parent="1">
          <mxGeometry x="90" y="270" width="160" height="116" as="geometry" />
        </mxCell>
        <mxCell id="TDjMeO70TRNZ5qjvtTgJ-7" value="&lt;div&gt;&lt;u&gt;ville&lt;/u&gt;&lt;/div&gt;" style="text;strokeColor=none;fillColor=none;align=left;verticalAlign=middle;spacingLeft=4;spacingRight=4;overflow=hidden;points=[[0,0.5],[1,0.5]];portConstraint=eastwest;rotatable=0;whiteSpace=wrap;html=1;" parent="_rh66zNBPdWcCcWVSU1G-5" vertex="1">
          <mxGeometry y="26" width="160" height="30" as="geometry" />
        </mxCell>
        <mxCell id="s2Kjf74PjBErWB5rCB7U-6" value="codePostal" style="text;strokeColor=none;fillColor=none;align=left;verticalAlign=middle;spacingLeft=4;spacingRight=4;overflow=hidden;points=[[0,0.5],[1,0.5]];portConstraint=eastwest;rotatable=0;whiteSpace=wrap;html=1;" parent="_rh66zNBPdWcCcWVSU1G-5" vertex="1">
          <mxGeometry y="56" width="160" height="30" as="geometry" />
        </mxCell>
        <mxCell id="TDjMeO70TRNZ5qjvtTgJ-8" value="&lt;div&gt;province&lt;/div&gt;" style="text;strokeColor=none;fillColor=none;align=left;verticalAlign=middle;spacingLeft=4;spacingRight=4;overflow=hidden;points=[[0,0.5],[1,0.5]];portConstraint=eastwest;rotatable=0;whiteSpace=wrap;html=1;" parent="_rh66zNBPdWcCcWVSU1G-5" vertex="1">
          <mxGeometry y="86" width="160" height="30" as="geometry" />
        </mxCell>
        <mxCell id="_rh66zNBPdWcCcWVSU1G-11" value="" style="edgeStyle=entityRelationEdgeStyle;fontSize=12;html=1;endArrow=ERzeroToMany;startArrow=ERmandOne;rounded=0;exitX=0;exitY=0.5;exitDx=0;exitDy=0;entryX=1;entryY=0.5;entryDx=0;entryDy=0;" edge="1" parent="1" source="s2Kjf74PjBErWB5rCB7U-2" target="TDjMeO70TRNZ5qjvtTgJ-3">
          <mxGeometry width="100" height="100" relative="1" as="geometry">
            <mxPoint x="280" y="370" as="sourcePoint" />
            <mxPoint x="380" y="270" as="targetPoint" />
          </mxGeometry>
        </mxCell>
        <mxCell id="_rh66zNBPdWcCcWVSU1G-12" value="" style="edgeStyle=entityRelationEdgeStyle;fontSize=12;html=1;endArrow=ERzeroToMany;startArrow=ERmandOne;rounded=0;entryX=0;entryY=0.5;entryDx=0;entryDy=0;exitX=1;exitY=0.5;exitDx=0;exitDy=0;" edge="1" parent="1" source="_rh66zNBPdWcCcWVSU1G-5" target="s2Kjf74PjBErWB5rCB7U-4">
          <mxGeometry width="100" height="100" relative="1" as="geometry">
            <mxPoint x="470" y="412" as="sourcePoint" />
            <mxPoint x="490" y="309" as="targetPoint" />
          </mxGeometry>
        </mxCell>
        <mxCell id="_rh66zNBPdWcCcWVSU1G-13" value="" style="edgeStyle=entityRelationEdgeStyle;fontSize=12;html=1;endArrow=ERzeroToMany;startArrow=ERmandOne;rounded=0;" edge="1" parent="1" source="TDjMeO70TRNZ5qjvtTgJ-7" target="TDjMeO70TRNZ5qjvtTgJ-3">
          <mxGeometry width="100" height="100" relative="1" as="geometry">
            <mxPoint x="320" y="385.48799999999994" as="sourcePoint" />
            <mxPoint x="310" y="134.51" as="targetPoint" />
            <Array as="points">
              <mxPoint x="380" y="203.54" />
              <mxPoint x="280" y="273.53999999999996" />
              <mxPoint x="330" y="244.51" />
              <mxPoint x="330" y="254.51" />
              <mxPoint x="400" y="173.54" />
            </Array>
          </mxGeometry>
        </mxCell>
        <mxCell id="_rh66zNBPdWcCcWVSU1G-15" value="&lt;div&gt;Idclient = 2 première lettre du nom + 2 première lettre prénom +jour naissance&lt;/div&gt;" style="shape=note;size=20;whiteSpace=wrap;html=1;" vertex="1" parent="1">
          <mxGeometry x="700" y="165" width="100" height="100" as="geometry" />
        </mxCell>
        <mxCell id="_rh66zNBPdWcCcWVSU1G-17" style="edgeStyle=orthogonalEdgeStyle;rounded=0;orthogonalLoop=1;jettySize=auto;html=1;" edge="1" parent="1" source="_rh66zNBPdWcCcWVSU1G-15" target="s2Kjf74PjBErWB5rCB7U-2">
          <mxGeometry relative="1" as="geometry" />
        </mxCell>
        <mxCell id="_rh66zNBPdWcCcWVSU1G-20" style="edgeStyle=orthogonalEdgeStyle;rounded=0;orthogonalLoop=1;jettySize=auto;html=1;" edge="1" parent="1" source="_rh66zNBPdWcCcWVSU1G-19" target="_rh66zNBPdWcCcWVSU1G-18">
          <mxGeometry relative="1" as="geometry" />
        </mxCell>
        <mxCell id="_rh66zNBPdWcCcWVSU1G-19" value="&lt;div&gt;N°achat = numèro unique de l&#39;achat&lt;/div&gt;" style="shape=note;size=20;whiteSpace=wrap;html=1;" vertex="1" parent="1">
          <mxGeometry x="520" y="50" width="100" height="100" as="geometry" />
        </mxCell>
        <mxCell id="_rh66zNBPdWcCcWVSU1G-21" value="" style="edgeStyle=entityRelationEdgeStyle;fontSize=12;html=1;endArrow=ERoneToMany;startArrow=ERzeroToMany;rounded=0;" edge="1" parent="1" source="_rh66zNBPdWcCcWVSU1G-18" target="TDjMeO70TRNZ5qjvtTgJ-4">
          <mxGeometry width="100" height="100" relative="1" as="geometry">
            <mxPoint x="340" y="370" as="sourcePoint" />
            <mxPoint x="440" y="270" as="targetPoint" />
          </mxGeometry>
        </mxCell>
        <mxCell id="_rh66zNBPdWcCcWVSU1G-22" value="vente" style="text;html=1;align=center;verticalAlign=middle;whiteSpace=wrap;rounded=0;" vertex="1" parent="1">
          <mxGeometry x="425" y="200" width="60" height="30" as="geometry" />
        </mxCell>
        <mxCell id="_rh66zNBPdWcCcWVSU1G-23" value="domiciliation" style="text;html=1;align=center;verticalAlign=middle;whiteSpace=wrap;rounded=0;" vertex="1" parent="1">
          <mxGeometry x="350" y="300" width="60" height="30" as="geometry" />
        </mxCell>
        <mxCell id="_rh66zNBPdWcCcWVSU1G-24" value="lieu" style="text;html=1;align=center;verticalAlign=middle;whiteSpace=wrap;rounded=0;" vertex="1" parent="1">
          <mxGeometry x="230" y="210" width="60" height="30" as="geometry" />
        </mxCell>
        <mxCell id="_rh66zNBPdWcCcWVSU1G-25" value="&lt;div&gt;type&lt;/div&gt;" style="text;html=1;align=center;verticalAlign=middle;whiteSpace=wrap;rounded=0;" vertex="1" parent="1">
          <mxGeometry x="200" y="120" width="60" height="30" as="geometry" />
        </mxCell>
      </root>
    </mxGraphModel>
  </diagram>
</mxfile>
